<?xml version="1.0" standalone="no"?>
<!DOCTYPE svg PUBLIC "-//W3C//DTD SVG 20010904//EN"
 "http://www.w3.org/TR/2001/REC-SVG-20010904/DTD/svg10.dtd">
<svg version="1.0" xmlns="http://www.w3.org/2000/svg"
 width="900.000000pt" height="341.000000pt" viewBox="0 0 900.000000 341.000000"
 preserveAspectRatio="xMidYMid meet">

<g transform="translate(0.000000,341.000000) scale(0.100000,-0.100000)"
fill="#1fa7cc" stroke="none">
<path d="M110 3091 c0 -109 4 -182 10 -186 6 -3 10 -12 10 -18 0 -7 -4 -6 -10
3 -6 10 -10 -485 -10 -1406 0 -1583 -6 -1465 68 -1426 88 46 728 416 742 429
13 12 16 80 20 454 4 376 7 441 20 449 9 6 315 10 777 10 l762 0 58 -49 c32
-27 87 -79 123 -115 l65 -67 5 -327 5 -327 23 -3 c19 -3 55 27 175 146 l152
149 154 7 c85 3 185 6 222 6 95 0 99 7 99 176 0 73 -3 139 -6 148 -5 14 -37
16 -248 16 l-242 0 -90 123 c-235 316 -359 484 -463 628 l-113 156 -471 -2
c-344 -1 -472 -5 -475 -14 -5 -15 -29 -14 -34 1 -3 9 -57 12 -209 11 -112 -1
-223 0 -246 3 l-43 5 0 254 c0 251 0 254 22 269 20 14 110 16 770 16 450 0
757 -4 772 -10 14 -5 57 -52 96 -104 71 -94 89 -110 113 -100 24 10 422 542
422 565 0 12 6 24 12 26 14 5 -109 178 -132 187 -8 3 -15 12 -15 21 0 9 -10
29 -22 45 l-22 30 -1233 0 c-967 0 -1238 -3 -1255 -13 -16 -9 -22 -9 -25 1 -4
9 -47 12 -169 12 l-164 0 0 -179z m158 142 c2 -8 -5 -13 -17 -13 -12 0 -21 6
-21 16 0 18 31 15 38 -3z m2357 -13 c3 -5 -3 -10 -14 -10 -12 0 -21 5 -21 10
0 6 6 10 14 10 8 0 18 -4 21 -10z m-325 -36 c0 -11 -8 -14 -27 -12 -39 4 -42
28 -4 28 21 0 31 -5 31 -16z m470 -14 c0 -5 -4 -10 -10 -10 -5 0 -10 5 -10 10
0 6 5 10 10 10 6 0 10 -4 10 -10z m-2180 -30 c0 -5 -7 -10 -15 -10 -8 0 -15 5
-15 10 0 6 7 10 15 10 8 0 15 -4 15 -10z m871 -30 c34 -19 23 -40 -18 -34 -43
5 -47 8 -40 29 7 17 30 19 58 5z m49 -60 c0 -5 -2 -10 -4 -10 -3 0 -8 5 -11
10 -3 6 -1 10 4 10 6 0 11 -4 11 -10z m655 -20 c3 -5 1 -10 -4 -10 -6 0 -11 5
-11 10 0 6 2 10 4 10 3 0 8 -4 11 -10z m-1850 -20 c3 -5 1 -10 -4 -10 -6 0
-11 5 -11 10 0 6 2 10 4 10 3 0 8 -4 11 -10z m2603 -11 c4 -20 -22 -31 -54
-23 -15 4 -24 13 -24 26 0 16 6 19 37 16 25 -2 39 -8 41 -19z m-2013 1 c-3 -5
-10 -10 -16 -10 -5 0 -9 5 -9 10 0 6 7 10 16 10 8 0 12 -4 9 -10z m1695 -40
c0 -5 -4 -10 -10 -10 -5 0 -10 5 -10 10 0 6 5 10 10 10 6 0 10 -4 10 -10z
m380 -20 c0 -5 -4 -10 -10 -10 -5 0 -10 5 -10 10 0 6 5 10 10 10 6 0 10 -4 10
-10z m-1655 -20 c3 -5 -3 -10 -15 -10 -12 0 -18 5 -15 10 3 6 10 10 15 10 5 0
12 -4 15 -10z m145 -20 c0 -5 -4 -10 -9 -10 -6 0 -13 5 -16 10 -3 6 1 10 9 10
9 0 16 -4 16 -10z m830 -15 c0 -8 -4 -15 -9 -15 -13 0 -22 16 -14 24 11 11 23
6 23 -9z m463 0 c-4 -15 -36 -12 -41 3 -3 9 3 13 19 10 13 -1 23 -7 22 -13z
m-1253 -15 c0 -5 -7 -10 -15 -10 -8 0 -15 5 -15 10 0 6 7 10 15 10 8 0 15 -4
15 -10z m80 -11 c0 -6 -4 -7 -10 -4 -5 3 -10 11 -10 16 0 6 5 7 10 4 6 -3 10
-11 10 -16z m1450 12 c0 -5 -6 -14 -14 -20 -16 -13 -32 2 -21 19 8 12 35 13
35 1z m-1794 -50 c0 -33 -2 -38 -15 -33 -9 4 -35 7 -58 6 -41 -1 -43 1 -43 27
0 27 3 28 53 32 28 2 54 4 57 5 3 1 6 -16 6 -37z m1504 29 c0 -5 -4 -10 -10
-10 -5 0 -10 5 -10 10 0 6 5 10 10 10 6 0 10 -4 10 -10z m152 -25 c-4 -22 -9
-25 -48 -25 -40 0 -44 2 -44 25 0 23 3 25 49 25 46 0 48 -1 43 -25z m-1297 5
c3 -5 -3 -10 -14 -10 -12 0 -21 5 -21 10 0 6 6 10 14 10 8 0 18 -4 21 -10z
m735 -5 c0 -2 -13 -11 -30 -20 -25 -13 -30 -22 -30 -50 0 -24 6 -37 20 -45 14
-7 20 -7 20 0 0 15 26 12 41 -6 10 -13 10 -17 -2 -25 -8 -5 -21 -6 -29 -2 -8
4 -30 6 -49 6 -23 -1 -34 3 -38 15 -3 14 -16 17 -69 15 -45 -1 -62 2 -57 10
11 18 8 65 -7 82 -12 14 -10 15 14 5 38 -14 145 -12 181 5 37 17 35 16 35 10z
m400 -10 c0 -8 -9 -15 -20 -15 -11 0 -20 7 -20 15 0 8 9 15 20 15 11 0 20 -7
20 -15z m-1200 -15 c0 -5 -4 -10 -10 -10 -5 0 -10 5 -10 10 0 6 5 10 10 10 6
0 10 -4 10 -10z m1349 -69 l35 -18 -39 -39 c-24 -25 -39 -34 -42 -26 -4 10 -8
10 -19 1 -11 -9 -14 -8 -14 5 0 22 -31 33 -124 41 -59 6 -75 10 -61 17 9 6 35
7 57 4 28 -5 47 -2 63 8 12 8 40 16 61 19 21 2 41 4 44 5 3 1 20 -7 39 -17z
m-1219 -31 c0 -5 -7 -10 -15 -10 -8 0 -15 5 -15 10 0 6 7 10 15 10 8 0 15 -4
15 -10z m-575 -30 c3 -5 -1 -10 -10 -10 -9 0 -13 5 -10 10 3 6 8 10 10 10 2 0
7 -4 10 -10z m1035 0 c0 -5 -9 -10 -19 -10 -11 0 -23 5 -26 10 -4 6 5 10 19
10 14 0 26 -4 26 -10z m390 0 c0 -5 -9 -10 -20 -10 -11 0 -20 5 -20 10 0 6 9
10 20 10 11 0 20 -4 20 -10z m64 -9 c3 -5 -1 -12 -10 -15 -27 -11 -37 -7 -24
9 14 17 26 19 34 6z m-2024 -16 c0 -9 -9 -15 -25 -15 -16 0 -25 6 -25 15 0 9
9 15 25 15 16 0 25 -6 25 -15z m2274 -47 c-4 -6 -10 -5 -15 3 -14 22 -10 33 6
19 8 -7 12 -17 9 -22z m-28 -10 c-3 -7 -9 -20 -12 -29 -5 -13 -10 -14 -29 -5
l-23 11 27 17 c32 20 45 22 37 6z m-2656 -8 c0 -5 -7 -10 -15 -10 -8 0 -15 5
-15 10 0 6 7 10 15 10 8 0 15 -4 15 -10z m2480 -30 c0 -5 -5 -10 -11 -10 -5 0
-7 5 -4 10 3 6 8 10 11 10 2 0 4 -4 4 -10z m80 -15 c-7 -8 -16 -13 -20 -10 -5
3 -11 1 -14 -4 -7 -11 40 -24 57 -16 17 9 -24 -24 -44 -35 -12 -7 -21 -4 -33
9 -22 24 -1 69 34 73 32 4 36 2 20 -17z m70 -9 c0 -3 -4 -8 -10 -11 -5 -3 -10
-1 -10 4 0 6 5 11 10 11 6 0 10 -2 10 -4z m-2370 -116 c0 -5 -7 -10 -15 -10
-8 0 -15 5 -15 10 0 6 7 10 15 10 8 0 15 -4 15 -10z m-260 -80 c0 -5 -7 -10
-15 -10 -8 0 -15 5 -15 10 0 6 7 10 15 10 8 0 15 -4 15 -10z m500 -109 c0 -13
-37 -24 -50 -16 -6 4 -8 11 -5 16 8 12 55 12 55 0z m-70 -55 c0 -17 -24 -28
-45 -20 -27 11 -17 34 15 34 19 0 30 -5 30 -14z m1110 -136 c0 -5 -4 -10 -10
-10 -5 0 -10 5 -10 10 0 6 5 10 10 10 6 0 10 -4 10 -10z m-885 -10 c3 -5 -1
-10 -9 -10 -9 0 -16 5 -16 10 0 6 4 10 9 10 6 0 13 -4 16 -10z m-215 -10 c0
-5 -9 -10 -20 -10 -11 0 -20 5 -20 10 0 6 9 10 20 10 11 0 20 -4 20 -10z m460
-4 c0 -3 -4 -8 -10 -11 -5 -3 -10 -1 -10 4 0 6 5 11 10 11 6 0 10 -2 10 -4z
m1220 -116 c9 -18 8 -20 -15 -20 -15 0 -23 4 -20 10 3 5 -3 15 -15 22 -11 7
-20 19 -20 26 0 18 56 -12 70 -38z m-690 30 c0 -5 -4 -10 -10 -10 -5 0 -10 5
-10 10 0 6 5 10 10 10 6 0 10 -4 10 -10z m80 -30 c0 -5 -2 -10 -4 -10 -3 0 -8
5 -11 10 -3 6 -1 10 4 10 6 0 11 -4 11 -10z m-1160 -100 c0 -5 -7 -10 -15 -10
-8 0 -15 5 -15 10 0 6 7 10 15 10 8 0 15 -4 15 -10z m1523 -5 c-4 -15 -36 -12
-41 3 -3 9 3 13 19 10 13 -1 23 -7 22 -13z m-891 -77 c-9 -9 -15 -9 -24 0 -9
9 -7 12 12 12 19 0 21 -3 12 -12z m778 -18 c0 -5 -4 -10 -10 -10 -5 0 -10 5
-10 10 0 6 5 10 10 10 6 0 10 -4 10 -10z m-1390 -30 c0 -5 -7 -10 -15 -10 -8
0 -15 5 -15 10 0 6 7 10 15 10 8 0 15 -4 15 -10z m1325 -60 c3 -5 1 -10 -4
-10 -6 0 -11 5 -11 10 0 6 2 10 4 10 3 0 8 -4 11 -10z m-1325 -70 c0 -5 -4
-10 -10 -10 -5 0 -10 5 -10 10 0 6 5 10 10 10 6 0 10 -4 10 -10z m1865 0 c3
-6 -1 -7 -9 -4 -18 7 -21 14 -7 14 6 0 13 -4 16 -10z m45 -57 c0 -22 -8 -14
-19 20 -10 29 -9 30 4 13 8 -11 15 -26 15 -33z m-330 -3 c0 -5 -5 -10 -11 -10
-5 0 -7 5 -4 10 3 6 8 10 11 10 2 0 4 -4 4 -10z m-648 -12 c-9 -9 -15 -9 -24
0 -9 9 -7 12 12 12 19 0 21 -3 12 -12z m-445 -4 c-3 -3 -12 -4 -19 -1 -8 3 -5
6 6 6 11 1 17 -2 13 -5z m1608 -54 c3 -5 -1 -10 -10 -10 -9 0 -13 5 -10 10 3
6 8 10 10 10 2 0 7 -4 10 -10z m205 -209 c0 -12 -21 -19 -37 -13 -22 8 -14 22
12 22 14 0 25 -4 25 -9z m-1910 -71 c0 -5 -2 -10 -4 -10 -3 0 -8 5 -11 10 -3
6 -1 10 4 10 6 0 11 -4 11 -10z m2414 -3 c18 -13 18 -14 1 -21 -16 -6 -65 16
-65 29 0 11 47 4 64 -8z m-234 -111 c0 -3 -4 -8 -10 -11 -5 -3 -10 -1 -10 4 0
6 5 11 10 11 6 0 10 -2 10 -4z m80 -26 c0 -5 -4 -10 -10 -10 -5 0 -10 5 -10
10 0 6 5 10 10 10 6 0 10 -4 10 -10z m-2530 -150 c0 -5 -4 -10 -10 -10 -5 0
-10 5 -10 10 0 6 5 10 10 10 6 0 10 -4 10 -10z m-370 -64 c0 -3 -4 -8 -10 -11
-5 -3 -10 -1 -10 4 0 6 5 11 10 11 6 0 10 -2 10 -4z m80 -147 c-14 -25 -63
-23 -68 4 -3 14 4 17 38 17 38 0 40 -1 30 -21z"/>
<path d="M5670 3107 c0 -113 4 -167 12 -175 9 -9 100 -12 348 -12 184 0 340
-4 347 -8 8 -5 -107 -127 -347 -367 l-360 -360 0 -171 c0 -187 -1 -183 61
-203 30 -10 74 -63 332 -406 163 -217 297 -400 297 -407 0 -7 -58 -89 -128
-183 -270 -360 -532 -715 -532 -720 0 -3 9 -1 19 5 26 13 32 13 29 -2 -6 -30
57 0 344 163 400 226 386 217 398 259 5 19 10 122 10 227 l0 192 103 99 c374
362 744 702 762 702 14 0 119 -99 313 -293 l292 -293 0 -310 c0 -252 3 -314
14 -330 14 -18 30 -19 400 -19 303 0 388 3 398 13 10 10 13 98 13 412 l0 400
-455 455 c-250 250 -456 461 -458 469 -2 7 201 208 450 446 532 508 511 487
505 511 -3 10 3 25 14 35 10 9 19 21 19 26 0 4 -216 8 -479 8 l-479 0 -34 -32
c-18 -18 -78 -75 -133 -127 -211 -200 -274 -263 -272 -274 1 -7 -5 -11 -13
-10 -8 2 -55 -38 -104 -87 -59 -60 -83 -90 -71 -90 16 0 16 -2 -3 -18 -16 -14
-18 -22 -10 -30 7 -7 17 -12 24 -12 6 0 14 -7 18 -15 3 -8 1 -15 -4 -15 -5 0
-15 7 -24 15 -8 8 -22 15 -30 15 -9 0 -16 5 -16 10 0 19 -18 10 -24 -12 -5
-19 -8 -21 -16 -8 -8 13 -11 11 -16 -7 -4 -13 -10 -21 -14 -18 -4 3 -22 -11
-39 -30 -17 -19 -34 -35 -39 -35 -13 0 -73 -66 -66 -73 4 -3 -4 -11 -18 -16
-14 -5 -85 -67 -159 -138 -74 -71 -155 -149 -181 -172 -27 -24 -48 -50 -48
-57 0 -8 -8 -14 -18 -14 -25 0 -98 -76 -80 -83 9 -4 7 -6 -4 -6 -16 -1 -18 10
-19 87 -1 48 -1 91 0 96 1 4 -1 17 -4 28 -5 14 -10 16 -19 9 -7 -6 -16 -8 -19
-4 -4 3 -7 2 -7 -3 0 -6 5 -15 12 -22 7 -7 8 -12 2 -12 -6 0 -15 5 -20 10 -16
16 -46 1 -39 -20 7 -22 -22 -35 -41 -19 -8 6 -23 9 -33 6 -11 -2 -35 -2 -53 2
-22 5 -40 3 -56 -7 -21 -14 -22 -13 -20 9 2 17 -3 24 -22 30 -16 4 -19 7 -7 8
9 1 17 5 17 11 0 5 -8 14 -17 19 -17 10 -17 12 -1 24 12 9 14 17 7 24 -6 6 2
16 26 29 31 16 40 31 36 57 -2 13 11 8 24 -10 8 -11 14 -13 19 -5 4 7 2 12 -3
12 -6 0 -11 7 -11 15 0 8 -4 15 -8 15 -12 0 -52 35 -52 45 0 4 6 3 13 -2 20
-15 67 -16 67 -1 0 7 7 2 16 -10 10 -14 25 -22 45 -22 16 0 47 -9 69 -20 53
-27 70 -26 70 6 0 22 -2 25 -15 14 -12 -10 -15 -10 -15 4 0 18 -15 22 -25 6
-3 -5 -10 -10 -16 -10 -5 0 -9 5 -9 10 0 6 6 10 14 10 8 0 13 8 12 17 0 10 7
19 19 20 19 4 19 3 1 -8 -15 -9 -16 -13 -5 -20 20 -12 35 -11 38 4 1 6 4 74 7
151 5 111 4 140 -7 148 -11 7 -11 11 -1 15 19 8 17 396 -2 416 -9 8 -11 18 -6
23 10 11 14 42 12 106 l-2 47 -410 1 -410 0 0 -163z m2900 143 c0 -5 -4 -10
-10 -10 -5 0 -10 5 -10 10 0 6 5 10 10 10 6 0 10 -4 10 -10z m-580 -34 c0 -3
-4 -8 -10 -11 -5 -3 -10 -1 -10 4 0 6 5 11 10 11 6 0 10 -2 10 -4z m-1830 -30
c0 -11 -19 -15 -25 -6 -3 5 1 10 9 10 9 0 16 -2 16 -4z m2510 -5 c0 -12 -20
-25 -27 -18 -7 7 6 27 18 27 5 0 9 -4 9 -9z m-2570 -11 c0 -5 -4 -10 -10 -10
-5 0 -10 5 -10 10 0 6 5 10 10 10 6 0 10 -4 10 -10z m380 -40 c0 -5 -4 -10
-10 -10 -5 0 -10 5 -10 10 0 6 5 10 10 10 6 0 10 -4 10 -10z m1665 -70 c3 -5
1 -10 -4 -10 -6 0 -11 5 -11 10 0 6 2 10 4 10 3 0 8 -4 11 -10z m35 -10 c0 -5
-2 -10 -4 -10 -3 0 -8 5 -11 10 -3 6 -1 10 4 10 6 0 11 -4 11 -10z m-404 -257
c-8 -8 -36 5 -36 17 0 7 6 7 21 0 11 -7 18 -14 15 -17z m-1386 -57 c0 -11 -19
-15 -25 -6 -3 5 1 10 9 10 9 0 16 -2 16 -4z m1385 -6 c3 -5 -1 -10 -10 -10 -9
0 -13 5 -10 10 3 6 8 10 10 10 2 0 7 -4 10 -10z m-255 -39 c0 -6 -4 -13 -10
-16 -5 -3 -10 1 -10 9 0 9 5 16 10 16 6 0 10 -4 10 -9z m180 -21 c0 -5 -7 -10
-15 -10 -8 0 -15 5 -15 10 0 6 7 10 15 10 8 0 15 -4 15 -10z m-200 -26 c0 -22
-16 -17 -17 6 -1 11 2 18 8 15 5 -4 9 -13 9 -21z m-134 -19 c-3 -8 0 -16 7
-18 7 -2 8 -8 4 -13 -4 -5 -12 -2 -17 6 -13 21 -12 53 1 45 6 -4 8 -13 5 -20z
m184 4 c0 -6 7 -8 18 -4 14 5 15 4 5 -6 -17 -17 -16 -29 3 -29 8 0 13 4 10 8
-2 4 6 9 20 10 13 1 24 -3 24 -8 0 -6 -7 -10 -16 -10 -14 0 -14 -3 -4 -15 13
-16 13 -15 -55 -19 -11 -1 -19 -7 -17 -13 1 -7 -3 -12 -9 -10 -6 1 -14 -4 -16
-10 -3 -8 5 -13 20 -13 19 0 30 -9 41 -31 13 -26 13 -29 1 -19 -12 10 -15 9
-15 -4 0 -9 -7 -16 -16 -16 -11 0 -14 6 -9 21 5 14 3 19 -3 15 -6 -3 -13 -2
-17 4 -3 5 -18 7 -32 4 -22 -6 -25 -4 -20 10 4 10 1 16 -9 16 -8 0 -17 6 -20
14 -3 9 -16 13 -32 11 -15 -2 -27 -5 -27 -6 0 -1 -12 -2 -27 -3 -22 -2 -25 1
-16 12 8 9 13 10 18 2 9 -14 40 14 40 36 0 8 4 14 9 14 6 0 8 -9 6 -20 -3 -14
2 -20 14 -20 9 0 22 -5 29 -12 6 -6 15 -9 18 -5 4 3 -5 12 -20 18 -33 15 -33
27 -1 27 16 0 25 -6 25 -17 0 -14 2 -14 9 -1 6 8 7 19 5 25 -3 5 0 3 8 -5 7
-9 21 -14 32 -12 16 3 15 6 -9 22 -16 11 -23 20 -16 24 6 4 11 2 11 -4 0 -6 4
-9 10 -5 5 3 7 12 3 20 -3 9 1 15 11 15 9 0 16 -5 16 -11z m-210 -29 c0 -5 -4
-10 -10 -10 -5 0 -10 5 -10 10 0 6 5 10 10 10 6 0 10 -4 10 -10z m120 0 c0 -5
-4 -10 -10 -10 -5 0 -10 5 -10 10 0 6 5 10 10 10 6 0 10 -4 10 -10z m326 -25
c-11 -8 -24 -15 -30 -15 -5 0 -1 7 10 15 10 8 24 14 29 14 6 0 1 -6 -9 -14z
m-416 -5 c0 -5 -7 -10 -15 -10 -8 0 -15 5 -15 10 0 6 7 10 15 10 8 0 15 -4 15
-10z m303 -1 c-8 -8 -16 -8 -30 0 -16 9 -14 10 12 11 21 0 26 -3 18 -11z
m-423 -20 c0 -5 -4 -7 -10 -4 -6 3 -7 -1 -4 -9 3 -9 1 -16 -5 -16 -6 0 -11 2
-11 4 0 2 -3 11 -6 20 -4 12 0 16 15 16 12 0 21 -5 21 -11z m468 -37 c2 -12 8
-22 13 -22 6 0 7 -5 4 -10 -7 -12 -45 31 -45 50 0 20 25 4 28 -18z m-128 8 c8
-5 11 -12 8 -16 -4 -3 -14 1 -23 10 -18 17 -9 21 15 6z m-407 -26 c3 -4 -1
-13 -9 -21 -18 -18 -27 -13 -18 11 6 17 16 20 27 10z m221 -10 c9 -3 13 -11
10 -16 -4 -6 3 -5 15 1 17 10 21 9 21 -3 0 -20 -16 -29 -41 -21 -12 4 -18 13
-15 20 3 8 0 16 -7 19 -18 7 -1 7 17 0z m-99 -24 c3 -6 -1 -7 -9 -4 -18 7 -21
14 -7 14 6 0 13 -4 16 -10z m295 -50 c0 -5 -4 -10 -10 -10 -5 0 -10 5 -10 10
0 6 5 10 10 10 6 0 10 -4 10 -10z m-1550 -20 c0 -5 -5 -10 -11 -10 -5 0 -7 5
-4 10 3 6 8 10 11 10 2 0 4 -4 4 -10z m180 -100 c0 -5 -4 -10 -10 -10 -5 0
-10 5 -10 10 0 6 5 10 10 10 6 0 10 -4 10 -10z m-60 -10 c0 -5 -4 -10 -10 -10
-5 0 -10 5 -10 10 0 6 5 10 10 10 6 0 10 -4 10 -10z m950 -90 c0 -5 -2 -10 -4
-10 -3 0 -8 5 -11 10 -3 6 -1 10 4 10 6 0 11 -4 11 -10z m-300 -30 c0 -5 -4
-10 -10 -10 -5 0 -10 5 -10 10 0 6 5 10 10 10 6 0 10 -4 10 -10z m107 -86 c-3
-3 -12 -4 -19 -1 -8 3 -5 6 6 6 11 1 17 -2 13 -5z m-745 -26 c-7 -7 -12 -8
-12 -2 0 14 12 26 19 19 2 -3 -1 -11 -7 -17z m1748 12 c0 -5 -5 -10 -11 -10
-5 0 -7 5 -4 10 3 6 8 10 11 10 2 0 4 -4 4 -10z m-940 -15 c10 -12 10 -15 -3
-15 -8 0 -17 7 -21 15 -3 8 -2 15 3 15 5 0 14 -7 21 -15z m41 -8 c-1 -12 -15
-9 -19 4 -3 6 1 10 8 8 6 -3 11 -8 11 -12z m-57 -38 c-7 -11 -34 -12 -34 -1 0
14 11 21 26 15 8 -3 11 -9 8 -14z m-864 1 c0 -5 -2 -10 -4 -10 -3 0 -8 5 -11
10 -3 6 -1 10 4 10 6 0 11 -4 11 -10z m-236 -19 c4 -5 -3 -7 -14 -4 -23 6 -26
13 -6 13 8 0 17 -4 20 -9z m853 -11 c1 -16 -1 -17 -12 -7 -11 10 -8 19 10 27
1 0 1 -9 2 -20z m-532 -30 c3 -5 1 -10 -4 -10 -6 0 -11 5 -11 10 0 6 2 10 4
10 3 0 8 -4 11 -10z m815 -10 c0 -5 -5 -10 -11 -10 -5 0 -7 5 -4 10 3 6 8 10
11 10 2 0 4 -4 4 -10z m610 -50 c0 -5 -2 -10 -4 -10 -3 0 -8 5 -11 10 -3 6 -1
10 4 10 6 0 11 -4 11 -10z m-80 -50 c0 -5 -4 -10 -10 -10 -5 0 -10 5 -10 10 0
6 5 10 10 10 6 0 10 -4 10 -10z m-1680 -10 c0 -5 -5 -10 -11 -10 -5 0 -7 5 -4
10 3 6 8 10 11 10 2 0 4 -4 4 -10z m1480 -20 c0 -5 -4 -10 -10 -10 -5 0 -10 5
-10 10 0 6 5 10 10 10 6 0 10 -4 10 -10z m-1390 -60 c0 -5 -5 -10 -11 -10 -5
0 -7 5 -4 10 3 6 8 10 11 10 2 0 4 -4 4 -10z m2520 -180 c0 -5 -4 -10 -10 -10
-5 0 -10 5 -10 10 0 6 5 10 10 10 6 0 10 -4 10 -10z m-410 -214 c0 -3 -4 -8
-10 -11 -5 -3 -10 -1 -10 4 0 6 5 11 10 11 6 0 10 -2 10 -4z m-1656 -42 c23
-9 20 -19 -9 -32 -28 -13 -55 -6 -55 13 0 21 34 31 64 19z m1701 -254 c3 -5 1
-10 -4 -10 -6 0 -11 5 -11 10 0 6 2 10 4 10 3 0 8 -4 11 -10z m5 -160 c0 -5
-4 -10 -10 -10 -5 0 -10 5 -10 10 0 6 5 10 10 10 6 0 10 -4 10 -10z m290 -150
c0 -5 -4 -10 -10 -10 -5 0 -10 5 -10 10 0 6 5 10 10 10 6 0 10 -4 10 -10z
m-2400 -444 c0 -11 -19 -15 -25 -6 -3 5 1 10 9 10 9 0 16 -2 16 -4z"/>
<path d="M3084 2823 c-90 -123 -93 -127 -83 -146 6 -9 19 -17 29 -17 27 0 25
-14 -7 -47 -33 -33 -74 -53 -108 -53 -19 0 -40 -20 -95 -93 -38 -52 -70 -97
-70 -101 0 -4 8 -5 18 -2 9 2 33 7 52 10 l35 6 -40 -19 c-22 -11 -49 -20 -60
-21 -31 -1 -46 -16 -128 -130 -42 -58 -86 -116 -96 -130 -13 -16 -17 -28 -11
-34 6 -6 10 -22 10 -36 0 -19 77 -131 270 -391 149 -200 284 -376 300 -391
l30 -28 1024 0 1024 0 44 -48 c23 -27 64 -76 90 -109 l47 -60 -85 -102 -86
-101 -1038 0 -1038 0 -296 -303 c-231 -235 -291 -303 -276 -305 11 -2 18 -8
14 -13 -3 -6 0 -16 6 -24 11 -13 216 -15 1551 -15 l1539 0 29 27 c17 16 155
197 307 403 313 423 317 431 266 502 -197 272 -570 756 -580 753 -12 -4 -379
-6 -1559 -5 l-501 0 -84 106 c-45 58 -85 110 -86 115 -4 9 107 146 153 189
l27 25 1031 3 1031 2 285 284 c220 220 282 288 277 302 -4 11 1 25 15 40 l22
24 -294 0 c-257 0 -290 -2 -267 -14 15 -8 35 -16 45 -18 13 -3 2 -12 -34 -30
-29 -15 -53 -22 -53 -17 0 5 -5 9 -11 9 -6 0 -22 9 -35 19 l-24 19 25 6 c90
23 -37 26 -1000 26 -578 0 -1025 -4 -1025 -9 0 -17 -52 -22 -74 -8 -15 10 -71
14 -212 16 l-190 2 -50 -68z m776 47 c0 -5 -4 -10 -9 -10 -6 0 -13 5 -16 10
-3 6 1 10 9 10 9 0 16 -4 16 -10z m2045 -10 c3 -5 1 -10 -4 -10 -6 0 -11 5
-11 10 0 6 2 10 4 10 3 0 8 -4 11 -10z m-1655 -10 c0 -5 -4 -10 -10 -10 -5 0
-10 5 -10 10 0 6 5 10 10 10 6 0 10 -4 10 -10z m-1040 -40 c0 -5 -7 -10 -15
-10 -8 0 -15 5 -15 10 0 6 7 10 15 10 8 0 15 -4 15 -10z m780 -40 c0 -5 -7
-10 -15 -10 -8 0 -15 5 -15 10 0 6 7 10 15 10 8 0 15 -4 15 -10z m-795 -10
c-3 -5 -13 -10 -21 -10 -8 0 -14 5 -14 10 0 6 9 10 21 10 11 0 17 -4 14 -10z
m-20 -40 c3 -5 1 -10 -4 -10 -6 0 -11 5 -11 10 0 6 2 10 4 10 3 0 8 -4 11 -10z
m1095 -4 c0 -11 -19 -15 -25 -6 -3 5 1 10 9 10 9 0 16 -2 16 -4z m-775 -16
c-3 -5 -12 -10 -18 -10 -7 0 -6 4 3 10 19 12 23 12 15 0z m450 -15 c0 -5 -10
-11 -22 -13 -16 -2 -23 2 -23 13 0 11 7 15 23 13 12 -2 22 -7 22 -13z m1119
-6 c-8 -13 -21 -11 -27 5 -4 10 0 12 14 9 10 -3 16 -9 13 -14z m-699 1 c3 -5
-3 -10 -14 -10 -12 0 -21 5 -21 10 0 6 6 10 14 10 8 0 18 -4 21 -10z m-635
-10 c0 -5 -7 -10 -15 -10 -8 0 -15 5 -15 10 0 6 7 10 15 10 8 0 15 -4 15 -10z
m427 4 c-3 -3 -12 -4 -19 -1 -8 3 -5 6 6 6 11 1 17 -2 13 -5z m-329 -16 c-3
-7 -11 -13 -18 -13 -7 0 -15 6 -17 13 -3 7 4 12 17 12 13 0 20 -5 18 -12z
m-608 -18 c0 -5 -5 -10 -11 -10 -5 0 -7 5 -4 10 3 6 8 10 11 10 2 0 4 -4 4
-10z m425 -20 c0 -18 -33 -26 -47 -12 -6 6 -7 15 -3 22 10 16 50 8 50 -10z
m545 10 c0 -5 -4 -10 -10 -10 -5 0 -10 5 -10 10 0 6 5 10 10 10 6 0 10 -4 10
-10z m-1050 -50 c0 -5 -4 -10 -10 -10 -5 0 -10 5 -10 10 0 6 5 10 10 10 6 0
10 -4 10 -10z m802 -12 c-9 -9 -15 -9 -24 0 -9 9 -7 12 12 12 19 0 21 -3 12
-12z m-647 -28 c3 -5 -1 -10 -9 -10 -9 0 -16 5 -16 10 0 6 4 10 9 10 6 0 13
-4 16 -10z m870 -10 c3 -5 -1 -10 -9 -10 -9 0 -16 5 -16 10 0 6 4 10 9 10 6 0
13 -4 16 -10z m-770 -14 c18 -13 18 -14 -2 -24 -24 -13 -63 -5 -63 13 0 12 10
18 41 24 3 0 14 -5 24 -13z m125 4 c0 -5 -11 -10 -25 -10 -14 0 -25 5 -25 10
0 6 11 10 25 10 14 0 25 -4 25 -10z m-220 -51 c0 -11 -3 -11 -24 -3 -23 9 -20
23 4 17 11 -3 20 -9 20 -14z m-206 -59 c5 -5 4 -22 -3 -40 -6 -18 -8 -36 -6
-40 3 -5 1 -11 -4 -14 -5 -4 -12 -2 -16 3 -3 6 -12 8 -20 4 -19 -7 -19 11 0
27 8 7 15 21 15 32 0 19 -5 20 -47 15 -158 -20 -154 -20 -148 -4 4 9 14 13 26
10 10 -3 19 0 19 6 0 7 17 11 45 9 25 0 48 2 52 6 9 9 74 -2 87 -14z m1323
-56 c-3 -3 -12 -4 -19 -1 -8 3 -5 6 6 6 11 1 17 -2 13 -5z m-1440 -81 c0 -15
9 -33 19 -40 10 -7 14 -13 8 -13 -10 0 31 -26 57 -36 17 -6 15 -54 -3 -54 -5
0 -7 -4 -4 -9 3 -4 -6 -6 -21 -3 -23 4 -24 6 -7 15 28 15 28 15 13 33 -8 10
-13 20 -11 23 9 19 -46 8 -94 -19 -50 -27 -61 -30 -85 -20 -15 6 -35 11 -45
10 -11 -1 -29 1 -42 5 l-23 8 30 21 c16 11 44 33 62 47 30 24 107 57 134 59 6
0 11 -12 12 -27z m153 -103 c0 -5 -7 -10 -15 -10 -8 0 -15 5 -15 10 0 6 7 10
15 10 8 0 15 -4 15 -10z m-308 -62 c-7 -7 -16 -7 -28 0 -14 8 -13 10 10 10 18
0 24 -4 18 -10z m153 0 c-26 -10 -27 -12 -10 -18 14 -5 6 -8 -24 -8 -48 -1
-63 -9 -41 -22 12 -8 12 -10 1 -10 -8 0 -11 -7 -8 -20 3 -11 -2 -25 -12 -32
-14 -11 -14 -11 -3 4 9 11 10 18 2 23 -15 10 -12 41 7 56 20 17 71 36 98 37
13 0 10 -3 -10 -10z m-285 -122 c0 -3 -4 -8 -10 -11 -5 -3 -10 -1 -10 4 0 6 5
11 10 11 6 0 10 -2 10 -4z m130 -6 c-8 -5 -19 -10 -25 -10 -5 0 -3 5 5 10 8 5
20 10 25 10 6 0 3 -5 -5 -10z m90 -80 c0 -5 -4 -10 -10 -10 -5 0 -10 5 -10 10
0 6 5 10 10 10 6 0 10 -4 10 -10z m120 -30 c0 -5 -2 -10 -4 -10 -3 0 -8 5 -11
10 -3 6 -1 10 4 10 6 0 11 -4 11 -10z m804 -88 c10 -17 -12 -33 -40 -30 -18 2
-30 10 -32 21 -3 13 4 17 32 17 19 0 37 -4 40 -8z m1796 -32 c0 -5 -7 -10 -15
-10 -8 0 -15 5 -15 10 0 6 7 10 15 10 8 0 15 -4 15 -10z m-2020 -10 c0 -5 7
-10 15 -10 8 0 15 -2 15 -4 0 -2 3 -11 6 -20 4 -12 0 -16 -16 -16 -13 0 -20 5
-17 13 2 6 -2 20 -11 30 -10 11 -11 17 -4 17 7 0 12 -4 12 -10z m-680 -10 c0
-5 -9 -10 -20 -10 -11 0 -20 5 -20 10 0 6 9 10 20 10 11 0 20 -4 20 -10z m100
0 c0 -5 -7 -10 -15 -10 -8 0 -15 5 -15 10 0 6 7 10 15 10 8 0 15 -4 15 -10z
m133 -5 c1 -5 -6 -11 -15 -13 -11 -2 -18 3 -18 13 0 17 30 18 33 0z m365 -13
c2 -7 -3 -12 -12 -12 -9 0 -16 7 -16 16 0 17 22 14 28 -4z m322 -12 c0 -5 -2
-10 -4 -10 -3 0 -8 5 -11 10 -3 6 -1 10 4 10 6 0 11 -4 11 -10z m-290 -110 c0
-5 -2 -10 -4 -10 -3 0 -8 5 -11 10 -3 6 -1 10 4 10 6 0 11 -4 11 -10z m-610
-4 c0 -11 -19 -15 -25 -6 -3 5 1 10 9 10 9 0 16 -2 16 -4z m155 -16 c0 -18
-16 -22 -35 -10 -13 9 -13 11 0 20 19 12 35 8 35 -10z m1835 -10 c0 -5 -2 -10
-4 -10 -3 0 -8 5 -11 10 -3 6 -1 10 4 10 6 0 11 -4 11 -10z m-1130 -20 c0 -5
-4 -10 -9 -10 -6 0 -13 5 -16 10 -3 6 1 10 9 10 9 0 16 -4 16 -10z m435 -20
c3 -5 -1 -10 -9 -10 -9 0 -16 5 -16 10 0 6 4 10 9 10 6 0 13 -4 16 -10z m-600
-70 c3 -5 -1 -10 -10 -10 -9 0 -13 5 -10 10 3 6 8 10 10 10 2 0 7 -4 10 -10z
m-305 -60 c0 -5 -4 -10 -9 -10 -6 0 -13 5 -16 10 -3 6 1 10 9 10 9 0 16 -4 16
-10z m252 -32 c-6 -6 -16 -7 -22 -3 -9 6 -9 9 1 16 17 10 34 0 21 -13z m1018
12 c0 -5 -7 -10 -15 -10 -8 0 -15 5 -15 10 0 6 7 10 15 10 8 0 15 -4 15 -10z
m1039 -116 c20 -6 8 -14 -33 -24 -28 -6 -36 -5 -36 6 0 8 -4 14 -10 14 -5 0
-10 4 -10 9 0 9 55 6 89 -5z m361 -98 c0 -3 -4 -8 -10 -11 -5 -3 -10 -1 -10 4
0 6 5 11 10 11 6 0 10 -2 10 -4z m-145 -16 c-3 -5 -10 -10 -16 -10 -5 0 -9 5
-9 10 0 6 7 10 16 10 8 0 12 -4 9 -10z m-508 -66 c-3 -3 -12 -4 -19 -1 -8 3
-5 6 6 6 11 1 17 -2 13 -5z m383 -304 c0 -5 -4 -10 -10 -10 -5 0 -10 5 -10 10
0 6 5 10 10 10 6 0 10 -4 10 -10z m-200 -10 c0 -5 -4 -10 -10 -10 -5 0 -10 5
-10 10 0 6 5 10 10 10 6 0 10 -4 10 -10z m-265 -10 c3 -5 -1 -10 -10 -10 -9 0
-13 5 -10 10 3 6 8 10 10 10 2 0 7 -4 10 -10z m514 -14 c10 -12 8 -13 -8 -9
-12 3 -18 9 -15 14 7 12 10 11 23 -5z m-2364 -75 c3 -5 1 -13 -5 -16 -15 -9
-43 3 -35 15 8 13 32 13 40 1z m2265 -11 c0 -5 -7 -10 -15 -10 -8 0 -15 5 -15
10 0 6 7 10 15 10 8 0 15 -4 15 -10z m180 -91 c0 -5 -10 -9 -21 -9 -18 0 -19
2 -9 15 12 15 30 12 30 -6z m-2080 1 c0 -5 -7 -10 -16 -10 -8 0 -12 5 -9 10 3
6 10 10 16 10 5 0 9 -4 9 -10z m1950 0 c0 -5 -2 -10 -4 -10 -3 0 -8 5 -11 10
-3 6 -1 10 4 10 6 0 11 -4 11 -10z m-2630 -80 c0 -5 -4 -10 -10 -10 -5 0 -10
5 -10 10 0 6 5 10 10 10 6 0 10 -4 10 -10z m910 -104 c0 -11 -19 -15 -25 -6
-3 5 1 10 9 10 9 0 16 -2 16 -4z m80 -10 c0 -11 -19 -15 -25 -6 -3 5 1 10 9
10 9 0 16 -2 16 -4z m1150 0 c0 -3 -4 -8 -10 -11 -5 -3 -10 -1 -10 4 0 6 5 11
10 11 6 0 10 -2 10 -4z m-1200 -116 c0 -5 -4 -10 -10 -10 -5 0 -10 5 -10 10 0
6 5 10 10 10 6 0 10 -4 10 -10z m-855 -20 c3 -5 1 -10 -4 -10 -6 0 -11 5 -11
10 0 6 2 10 4 10 3 0 8 -4 11 -10z m505 -20 c0 -5 -4 -10 -9 -10 -6 0 -13 5
-16 10 -3 6 1 10 9 10 9 0 16 -4 16 -10z"/>
<path d="M2810 2190 c0 -10 33 -30 49 -30 22 0 10 18 -19 29 -17 5 -30 6 -30
1z"/>
<path d="M2780 2180 c0 -5 5 -10 11 -10 5 0 7 5 4 10 -3 6 -8 10 -11 10 -2 0
-4 -4 -4 -10z"/>
<path d="M2916 2592 c-3 -5 1 -9 9 -9 8 0 15 4 15 9 0 4 -4 8 -9 8 -6 0 -12
-4 -15 -8z"/>
<path d="M6440 2273 c8 -3 24 -10 35 -15 20 -9 20 -9 1 6 -11 9 -27 16 -35 15
-14 0 -14 -1 -1 -6z"/>
</g>
</svg>
